<mxfile host="app.diagrams.net" modified="2023-08-30T20:51:13.968Z" agent="Mozilla/5.0 (Windows NT 10.0; Win64; x64) AppleWebKit/537.36 (KHTML, like Gecko) Chrome/116.0.0.0 Safari/537.36 Edg/116.0.1938.54" etag="z4B6QH-4y1-tKwDf38DD" version="21.6.9" type="device">
  <diagram name="Página-1" id="yIrAsRp1UrFPVYJMZ1j1">
    <mxGraphModel dx="693" dy="393" grid="1" gridSize="10" guides="1" tooltips="1" connect="1" arrows="1" fold="1" page="1" pageScale="1" pageWidth="827" pageHeight="1169" math="0" shadow="0">
      <root>
        <mxCell id="0" />
        <mxCell id="1" parent="0" />
        <mxCell id="OieFfgvFbC5qElgq1rc1-13" value="" style="edgeStyle=orthogonalEdgeStyle;rounded=0;orthogonalLoop=1;jettySize=auto;html=1;" edge="1" parent="1" source="OieFfgvFbC5qElgq1rc1-1" target="OieFfgvFbC5qElgq1rc1-4">
          <mxGeometry relative="1" as="geometry" />
        </mxCell>
        <mxCell id="OieFfgvFbC5qElgq1rc1-1" value="Inicio" style="rounded=1;whiteSpace=wrap;html=1;" vertex="1" parent="1">
          <mxGeometry x="354" y="30" width="120" height="60" as="geometry" />
        </mxCell>
        <mxCell id="OieFfgvFbC5qElgq1rc1-12" style="edgeStyle=orthogonalEdgeStyle;rounded=0;orthogonalLoop=1;jettySize=auto;html=1;exitX=0.5;exitY=1;exitDx=0;exitDy=0;" edge="1" parent="1" source="OieFfgvFbC5qElgq1rc1-3" target="OieFfgvFbC5qElgq1rc1-4">
          <mxGeometry relative="1" as="geometry" />
        </mxCell>
        <mxCell id="OieFfgvFbC5qElgq1rc1-3" value="Imprimir:&lt;br&gt;Ingrese número entero" style="shape=parallelogram;perimeter=parallelogramPerimeter;whiteSpace=wrap;html=1;fixedSize=1;" vertex="1" parent="1">
          <mxGeometry x="354" y="110" width="120" height="60" as="geometry" />
        </mxCell>
        <mxCell id="OieFfgvFbC5qElgq1rc1-11" style="edgeStyle=orthogonalEdgeStyle;rounded=0;orthogonalLoop=1;jettySize=auto;html=1;exitX=0.5;exitY=1;exitDx=0;exitDy=0;entryX=0.5;entryY=0;entryDx=0;entryDy=0;" edge="1" parent="1" source="OieFfgvFbC5qElgq1rc1-4" target="OieFfgvFbC5qElgq1rc1-5">
          <mxGeometry relative="1" as="geometry" />
        </mxCell>
        <mxCell id="OieFfgvFbC5qElgq1rc1-4" value="Escribir:&lt;br&gt;N" style="shape=parallelogram;perimeter=parallelogramPerimeter;whiteSpace=wrap;html=1;fixedSize=1;" vertex="1" parent="1">
          <mxGeometry x="354" y="190" width="120" height="60" as="geometry" />
        </mxCell>
        <mxCell id="OieFfgvFbC5qElgq1rc1-7" value="" style="edgeStyle=orthogonalEdgeStyle;rounded=0;orthogonalLoop=1;jettySize=auto;html=1;" edge="1" parent="1" source="OieFfgvFbC5qElgq1rc1-5" target="OieFfgvFbC5qElgq1rc1-6">
          <mxGeometry relative="1" as="geometry" />
        </mxCell>
        <mxCell id="OieFfgvFbC5qElgq1rc1-15" style="edgeStyle=orthogonalEdgeStyle;rounded=0;orthogonalLoop=1;jettySize=auto;html=1;entryX=0.5;entryY=0;entryDx=0;entryDy=0;" edge="1" parent="1" source="OieFfgvFbC5qElgq1rc1-5" target="OieFfgvFbC5qElgq1rc1-14">
          <mxGeometry relative="1" as="geometry">
            <Array as="points">
              <mxPoint x="560" y="310" />
              <mxPoint x="560" y="470" />
            </Array>
          </mxGeometry>
        </mxCell>
        <mxCell id="OieFfgvFbC5qElgq1rc1-5" value="N&amp;gt;=0" style="rhombus;whiteSpace=wrap;html=1;" vertex="1" parent="1">
          <mxGeometry x="374" y="270" width="80" height="80" as="geometry" />
        </mxCell>
        <mxCell id="OieFfgvFbC5qElgq1rc1-18" value="" style="edgeStyle=orthogonalEdgeStyle;rounded=0;orthogonalLoop=1;jettySize=auto;html=1;" edge="1" parent="1" source="OieFfgvFbC5qElgq1rc1-6" target="OieFfgvFbC5qElgq1rc1-14">
          <mxGeometry relative="1" as="geometry" />
        </mxCell>
        <mxCell id="OieFfgvFbC5qElgq1rc1-6" value="Imprimir:&lt;br&gt;N" style="shape=parallelogram;perimeter=parallelogramPerimeter;whiteSpace=wrap;html=1;fixedSize=1;" vertex="1" parent="1">
          <mxGeometry x="354" y="370" width="120" height="60" as="geometry" />
        </mxCell>
        <mxCell id="OieFfgvFbC5qElgq1rc1-8" value="Si" style="text;html=1;align=center;verticalAlign=middle;resizable=0;points=[];autosize=1;strokeColor=none;fillColor=none;" vertex="1" parent="1">
          <mxGeometry x="414" y="340" width="30" height="30" as="geometry" />
        </mxCell>
        <mxCell id="OieFfgvFbC5qElgq1rc1-9" value="Fin" style="rounded=1;whiteSpace=wrap;html=1;" vertex="1" parent="1">
          <mxGeometry x="350" y="600" width="120" height="60" as="geometry" />
        </mxCell>
        <mxCell id="OieFfgvFbC5qElgq1rc1-19" style="edgeStyle=orthogonalEdgeStyle;rounded=0;orthogonalLoop=1;jettySize=auto;html=1;entryX=0.488;entryY=-0.1;entryDx=0;entryDy=0;entryPerimeter=0;exitX=0;exitY=0.5;exitDx=0;exitDy=0;" edge="1" parent="1" source="OieFfgvFbC5qElgq1rc1-14" target="OieFfgvFbC5qElgq1rc1-3">
          <mxGeometry relative="1" as="geometry">
            <Array as="points">
              <mxPoint x="210" y="510" />
              <mxPoint x="210" y="104" />
            </Array>
          </mxGeometry>
        </mxCell>
        <mxCell id="OieFfgvFbC5qElgq1rc1-20" value="Si" style="edgeLabel;html=1;align=center;verticalAlign=middle;resizable=0;points=[];" vertex="1" connectable="0" parent="OieFfgvFbC5qElgq1rc1-19">
          <mxGeometry x="-0.9656" y="-2" relative="1" as="geometry">
            <mxPoint x="-49" y="-8" as="offset" />
          </mxGeometry>
        </mxCell>
        <mxCell id="OieFfgvFbC5qElgq1rc1-21" style="edgeStyle=orthogonalEdgeStyle;rounded=0;orthogonalLoop=1;jettySize=auto;html=1;exitX=1;exitY=0.5;exitDx=0;exitDy=0;" edge="1" parent="1" source="OieFfgvFbC5qElgq1rc1-14" target="OieFfgvFbC5qElgq1rc1-9">
          <mxGeometry relative="1" as="geometry" />
        </mxCell>
        <mxCell id="OieFfgvFbC5qElgq1rc1-14" value="N&amp;gt;=0" style="rhombus;whiteSpace=wrap;html=1;" vertex="1" parent="1">
          <mxGeometry x="374" y="470" width="80" height="80" as="geometry" />
        </mxCell>
        <mxCell id="OieFfgvFbC5qElgq1rc1-17" value="No" style="text;html=1;align=center;verticalAlign=middle;resizable=0;points=[];autosize=1;strokeColor=none;fillColor=none;" vertex="1" parent="1">
          <mxGeometry x="470" y="288" width="40" height="30" as="geometry" />
        </mxCell>
        <mxCell id="OieFfgvFbC5qElgq1rc1-22" value="No" style="text;html=1;align=center;verticalAlign=middle;resizable=0;points=[];autosize=1;strokeColor=none;fillColor=none;" vertex="1" parent="1">
          <mxGeometry x="474" y="508" width="40" height="30" as="geometry" />
        </mxCell>
      </root>
    </mxGraphModel>
  </diagram>
</mxfile>
